<svg width="1038" height="396" viewBox="0 0 1038 396" fill="none" xmlns="http://www.w3.org/2000/svg">
<g clip-path="url(#clip0_6_436)">
<path d="M103.698 393.471V349.488C103.698 337.369 112.015 329.063 124.149 329.063C126.845 328.974 129.532 329.435 132.044 330.418C134.555 331.401 136.84 332.886 138.757 334.782C140.696 336.672 142.218 338.947 143.224 341.459C144.231 343.972 144.699 346.667 144.6 349.372V393.471H155.508V349.352C155.508 337.369 163.825 329.063 175.959 329.063C188.366 329.063 196.41 337.097 196.41 349.488V393.471H207.59V346.357C207.59 330.697 194.229 319.259 176.641 319.259C165.87 319.259 157.163 323.48 151.32 331.242H151.047C146.275 324.161 136.595 319.259 126.778 319.259C116.962 319.259 108.781 322.799 103.737 328.927H103.464V321.301H92.5177V393.471H103.698ZM256.177 395.514C267.766 395.514 277.446 391.565 282.9 384.484H283.163V393.471H294.07V321.301H282.9V362.016C282.9 375.905 272.81 385.709 258.767 385.709C244.042 385.709 235.725 376.956 235.725 362.152V321.301H224.545V364.292C224.545 373.824 227.409 381.449 233.135 387.032C238.861 392.615 246.496 395.514 256.177 395.514ZM347.565 395.514C367.607 395.514 380.676 387.071 380.676 374.271C380.676 361.471 371.678 355.616 346.182 351.803C327.776 349.08 322.595 346.493 322.595 339.957C322.595 333.42 330.658 328.791 342.569 328.791C354.976 328.791 364.247 334.918 366.974 344.723L377.336 342.68C374.882 329.335 359.884 319.259 342.569 319.259C324.163 319.259 311.892 327.837 311.892 340.365C311.892 352.348 320.345 357.931 345.977 361.471C363.429 363.786 369.837 367.307 369.837 374.407C369.837 381.508 361.384 385.982 347.613 385.982C331.389 385.982 321.845 379.173 319.527 366.529L309.165 368.844C311.298 385.029 326.432 395.514 347.565 395.514ZM431.6 395.514C447.007 395.514 459.277 388.978 466.913 376.45L458.05 370.614C451.915 380.827 443.189 386.001 431.6 386.001C416.602 386.001 404.332 375.652 404.332 361.355H469.094V357.27C469.094 335.074 452.869 319.278 431.464 319.278C408.967 319.278 393.015 334.938 393.015 357.814C393.015 380.691 408.422 395.514 431.6 395.514ZM457.641 352.348H404.468C405.286 338.867 416.466 328.791 431.464 328.791C445.234 328.791 456.823 339.276 457.641 352.348ZM515.635 395.514C527.224 395.514 536.905 391.565 542.358 384.484H542.631V393.471H553.538V321.301H542.358V362.016C542.358 375.905 532.269 385.709 518.226 385.709C503.501 385.709 495.184 376.956 495.184 362.152V321.301H484.004V364.292C484.004 373.824 486.867 381.449 492.593 387.032C498.32 392.615 505.955 395.514 515.635 395.514ZM583.806 393.471V349.488C583.806 337.369 592.123 329.063 604.257 329.063C606.954 328.974 609.64 329.435 612.152 330.418C614.664 331.401 616.948 332.886 618.866 334.782C620.805 336.672 622.327 338.947 623.333 341.459C624.339 343.972 624.808 346.667 624.709 349.372V393.471H635.704V349.352C635.704 337.369 644.021 329.063 656.155 329.063C668.562 329.063 676.606 337.097 676.606 349.488V393.471H687.786V346.357C687.786 330.697 674.425 319.259 656.837 319.259C646.066 319.259 637.359 323.48 631.516 331.242H631.243C626.471 324.161 616.791 319.259 606.975 319.259C597.158 319.259 588.977 322.799 583.933 328.927H583.66V321.301H572.753V393.471H583.806ZM852.039 395.514C867.446 395.514 879.717 388.978 887.352 376.45L878.49 370.614C872.354 380.827 863.667 385.982 852.078 385.982C837.081 385.982 824.81 375.633 824.81 361.335H889.572V357.25C889.572 335.054 873.348 319.259 851.942 319.259C829.446 319.259 813.494 334.918 813.494 357.795C813.494 380.671 828.9 395.514 852.078 395.514H852.039ZM878.081 352.348H824.907C825.725 338.867 836.905 328.791 851.903 328.791C865.713 328.791 877.302 339.276 878.12 352.348H878.081ZM917.036 393.471V352.756C917.036 338.867 927.67 329.063 942.94 329.063C957.12 329.063 965.982 337.914 965.982 352.212V393.471H977.162V350.033C977.162 331.786 963.255 319.259 942.94 319.259C932.442 319.259 922.489 323.344 917.036 330.289H916.763V321.301H905.855V393.471H917.036ZM1034.02 393.471V383.667H1022.7C1016.86 383.667 1014.79 381.897 1014.79 376.995V330.697H1037.97V321.301H1014.79V305.097H1003.61V321.301H987.933V330.697H1003.61V376.858C1003.61 388.705 1009.07 393.471 1022.56 393.471H1034.02ZM763.982 396C784.842 396 799.704 382.655 799.704 364.136V291.188H788.524V300.312H788.251C782.115 293.231 772.163 289.146 760.846 289.146C739.168 289.146 722.807 305.622 722.807 327.273C722.807 349.741 738.486 365.401 761.392 365.401C772.981 365.401 783.07 361.043 788.66 353.826H788.933V363.631C788.933 376.839 778.434 386.235 763.982 386.235C751.322 386.235 743.394 381.372 737.941 370.031L728.397 374.894C734.532 388.608 746.667 396 763.982 396ZM762.034 355.558C744.582 355.558 733.948 344.8 733.948 327.234C733.948 310.349 744.855 298.911 761.353 298.911C776.759 298.911 788.485 309.124 788.485 321.788V332.681C788.524 345.345 776.798 355.538 762.073 355.538L762.034 355.558ZM0 44.6636C0 67.1315 10.771 81.8378 27.2684 81.8378C43.2204 81.8378 51.2645 71.3527 57.2636 42.0763C61.6265 20.8339 65.3078 14.2978 73.4883 14.2978C82.7595 14.2978 89.0702 23.6935 89.0702 37.4466C89.0702 52.6975 81.1624 63.1826 67.5282 65.7698L69.807 77.3637C87.4146 74.3485 99.5296 58.4167 99.5296 37.5827C99.5296 17.0212 88.6222 2.56777 73.2351 2.56777C59.1724 2.58722 52.2189 11.9829 46.7653 39.2168C41.8959 62.5017 37.3577 69.9911 26.9957 69.9911C16.6337 69.9911 10.4788 60.1869 10.4788 44.7997C10.4788 24.7828 19.2437 13.8893 37.3382 11.5744L35.5852 0C13.0888 2.31488 0 18.6552 0 44.6636ZM2.04513 136.481H11.8617V125.179C11.8617 119.343 13.6342 117.281 18.5425 117.281H64.8987V140.43H74.3063V117.242H90.531V106.115H74.3063V90.4554H64.8987V106.115H18.6788C6.81709 106.115 2.04513 111.562 2.04513 125.042V136.481ZM0 174.248C0 185.686 4.49928 196.171 11.18 201.074V201.346H2.04513V212.103H52.7643C67.0802 212.103 76.3515 200.432 76.3515 182.01C76.3515 172.886 74.0336 165.261 69.5344 159.133C67.4188 156.18 64.7399 153.673 61.6513 151.757C58.5628 149.841 55.1256 148.553 51.5372 147.967L49.2194 158.725C60.1268 160.904 66.5348 169.482 66.5348 182.01C66.5348 193.04 62.0356 200.12 55.0821 200.12C49.4921 200.12 46.6289 194.81 44.0384 179.423C40.3572 156.41 34.0855 147.559 21.4057 147.559C8.18051 147.559 0 157.499 0 174.248ZM9.95296 176.573C9.95296 164.59 13.6342 158.871 21.4057 158.871C28.4955 158.871 32.313 165.271 35.0399 181.475C37.085 193.458 39.1301 198.632 42.8308 200.675V200.947H27.2489C18.1335 200.937 9.95296 189.363 9.95296 176.573ZM0 266.347C0 277.649 4.09026 287.59 11.0437 293.445V293.717H2.04513V304.475H101.575V293.289H65.1714V293.017C72.2612 287.026 76.3515 276.949 76.3515 265.647C76.3515 243.996 59.8541 227.656 38.1757 227.656C15.8157 227.675 0 243.879 0 266.347ZM9.81662 267.028C9.81662 249.735 20.8603 238.822 38.1757 238.822C55.4911 238.822 66.5348 249.851 66.5348 266.328C66.5348 281.618 56.3092 293.289 43.5904 293.289H32.722C20.0423 293.289 9.81662 281.734 9.81662 267.028ZM0 357.892C0 377.909 8.4532 390.962 21.2693 390.962C34.0855 390.962 39.9482 381.994 43.7657 356.511C46.4926 338.128 49.0831 332.954 55.6275 332.954C62.1719 332.954 66.8075 340.988 66.8075 352.834C66.8075 365.226 60.6721 374.485 50.8555 377.209L52.9006 387.557C66.2622 385.106 76.3515 370.128 76.3515 352.834C76.3515 334.451 67.7619 322.196 55.2185 322.196C43.2204 322.196 37.6304 330.639 34.0855 356.239C31.7677 373.668 28.2422 380.068 21.133 380.068C14.0237 380.068 9.50498 371.645 9.50498 357.892C9.50498 341.688 16.3221 332.156 28.9824 329.841L26.6646 319.492C10.4788 321.671 0 336.786 0 357.892Z" fill="white"/>
</g>
<defs>
<clipPath id="clip0_6_436">
<rect width="1038" height="396" fill="white"/>
</clipPath>
</defs>
</svg>
